<?xml version="1.0" standalone="no"?>
<svg xmlns="http://www.w3.org/2000/svg" viewBox="0 0 207.622 36" width="207.622" height="36"><g fill="#800707" color="#800707" transform="translate(179.622, 4.5) scale(0.5)"><svg width="56.0" height="54.0" x="0.0" y="0.0" viewBox="0 0 56 54"><path fill="currentColor" fill-rule="evenodd" d="M7.85 47.507c.989 1.452 3.003 3.017 4.057 3.152 5.389-3.755 16.128-13.908 16.224-21.875-.088.026-.174.054-.262.082-2.043 2-4.314 4.361-6.576 6.715-5.59 5.818-11.139 11.59-13.443 11.926zm-.189-.879c1.815-.152 7.365-5.884 12.953-11.7a421.285 421.285 0 0 1 5.17-5.32c-7.962 3.13-13.926 8.996-18.509 16.403-.074.12-.209.667.386.617zm21.967-20.834c4.154-5.073 4.507-17.288 7.799-21.3-1.324.416-2.618.992-3.041 1.288-4.804 5.947-5.043 12.817-4.758 20.012zm8.066-4.957v-.002c2.17-3.412 3.159-7.778 3.395-11.852.073-1.246.279-4.282-.356-4.753-.97-.721-2.48.632-2.85 1.203C35 9.901 34.488 21.47 30.281 26.483c3.32-.916 5.724-2.993 7.413-5.646zm-.2 1.83c5.422-1.89 14.862-4.877 15.666-6.457.075-.148.145-.547-.356-.502-5.154 1.015-9.914 2.857-14.271 5.474-.318.514-.665 1.01-1.039 1.485zM28 26.467c-.008-1.74-.394-3.743-1.413-4.811l-15.64-17.44-.108 2.261H6.746l17.635 18.96c1.03.743 2.356.881 3.62 1.123v-.092zm-5.6-1.848l-1.689-1.817c-5.647-1.702-12.82-1.096-17.611-.43-.19.025-2.12.259-2.16 1.157-.067 1.529 7.474 1.008 9.555.924 3.935-.157 8.333-.333 11.905.166zm4.946 2.72c-1.433-.254-2.878-.498-3.913-1.61-3.607-.706-8.546-.51-12.9-.334-3.142.125-7.406.361-9.29-.325.56 1.318 1.66 2.83 2.11 3.43 6.98 5.232 16.757 2.288 24.05-1.113a1.802 1.802 0 0 1-.057-.048zm21.013 22.572v-3.747l2.742-.702-13.308-14.48c-1.688-1.623-5.09-2.118-7.668-2.313.789 1.98 1.683 3.327 3.13 4.922L48.36 49.91zm.892 2.278L32.594 34.191c-1.468-1.65-2.613-3.074-3.754-6.434 1.512 4.872-5.92 16.836-16.612 23.758-1.31.472-6.852-3.645-5.763-5.81 3.49-6.929 8.917-11.657 14.82-14.955-6.474 2.027-13.277 2.428-18.57-1.613C.895 26.726.207 25.065.023 23.94c-.262-1.606 1.717-2.281 2.954-2.454 7.007-.966 12.46-.864 16.593.09L4.696 5.583h5.292L10.158 2 27.232 21.04c.765.752 1.214 1.968 1.448 3.204-.178-6.355.268-13.219 5.09-19.117 1.071-1.017 7.567-3.238 8.042-.938.424 2.087.53 9.437-2.404 15.405 4.106-2.284 8.588-3.892 13.64-4.84 1.241-.189 1.81 1.226 2.289 3.172.304 1.231 1.039 3.437.071 4.157-6.661 4.118-13.111 6.744-19.855 6.643 1.312.437 2.217.988 2.88 1.632l14.335 15.599-3.517.9v5.333zM30.752 27.276c2.418.524 4.876.685 7.363.463 6.03-.537 11.687-3.246 16.773-6.386.349-.292-.222-3.142-.891-4.706-.828 1.595-6.157 3.435-13.013 5.805-1.423.492-2.917 1.008-4.696 1.637l-.017-.05a12.946 12.946 0 0 1-5.519 3.237z"></path></svg></g><path fill="#800707" fill-rule="nonzero" d="M1.99 6.55L0 6.45L0 5.94L1.99 5.94L1.99 3.35L3 3.25L4.65 2.81L4.88 3.15L4.88 5.94L7.44 5.94L7.44 6.45L4.88 6.55L4.88 14.80Q4.88 15.52 5.04 15.99Q5.21 16.46 5.49 16.64Q5.77 16.82 5.94 16.86Q6.11 16.91 6.29 16.91L6.29 16.91Q6.66 16.91 6.99 16.75Q7.32 16.59 7.60 16.29Q7.88 15.98 8.05 15.73Q8.23 15.48 8.45 15.12L8.45 15.12L8.95 15.42Q8.33 16.45 7.88 16.92L7.88 16.92Q6.76 18.06 5.31 18.06L5.31 18.06Q4.76 18.06 4.33 17.98Q3.90 17.91 3.45 17.66Q2.99 17.41 2.68 17.00Q2.38 16.58 2.19 15.85Q1.99 15.12 1.99 14.13L1.99 14.13L1.99 6.55ZM9.61 15.16L9.61 15.16Q9.61 14.59 9.79 14.06Q9.97 13.52 10.38 13.03Q10.79 12.54 11.39 12.18Q11.99 11.81 12.87 11.60Q13.76 11.38 14.84 11.38L14.84 11.38Q15.41 11.38 15.93 11.43L15.93 11.43L15.93 9.81Q15.93 9.04 15.90 8.55Q15.87 8.07 15.75 7.56Q15.63 7.05 15.42 6.78Q15.20 6.50 14.81 6.32Q14.41 6.14 13.85 6.14L13.85 6.14Q12.14 6.14 11.36 7.49L11.36 7.49L11.36 7.54Q11.55 7.50 11.72 7.50L11.72 7.50Q12.33 7.50 12.68 7.88Q13.03 8.25 13.03 8.95L13.03 8.95Q13.03 9.56 12.61 9.98Q12.19 10.39 11.55 10.39L11.55 10.39Q10.86 10.39 10.46 9.93Q10.07 9.46 10.07 8.82L10.07 8.82Q10.07 7.44 11.34 6.52Q12.61 5.59 14.26 5.59L14.26 5.59Q15.43 5.59 16.26 5.84Q17.09 6.08 17.58 6.49Q18.07 6.89 18.35 7.59Q18.62 8.29 18.71 9.01Q18.80 9.74 18.80 10.79L18.80 10.79L18.80 17.11L20.00 17.23L20.00 17.71L16.28 17.71L15.95 15.86L15.93 15.86Q15.35 16.97 14.54 17.51Q13.72 18.06 12.56 18.06L12.56 18.06Q11.13 18.06 10.37 17.20Q9.61 16.35 9.61 15.16ZM12.45 14.92L12.45 14.92Q12.45 15.86 12.80 16.44Q13.15 17.02 13.83 17.02L13.83 17.02Q14.63 17.02 15.28 16.02Q15.93 15.02 15.93 13.58L15.93 13.58L15.93 11.96Q15.46 11.91 15.16 11.91L15.16 11.91Q14.55 11.91 14.08 12.07Q13.61 12.23 13.32 12.52Q13.04 12.80 12.86 13.11Q12.67 13.42 12.59 13.79Q12.50 14.17 12.47 14.41Q12.45 14.66 12.45 14.92ZM22.65 6.88L21.21 6.88L21.21 6.40L23.66 6.14L25.31 5.71L25.52 6.05L25.52 17.11L26.73 17.23L26.73 17.71L21.45 17.71L21.45 17.23L22.65 17.11L22.65 6.88ZM22.49 1.55L22.49 1.55Q22.49 1.22 22.61 0.94Q22.73 0.66 22.95 0.45Q23.16 0.23 23.44 0.12Q23.72 0 24.04 0L24.04 0Q24.35 0 24.63 0.12Q24.91 0.25 25.13 0.46Q25.35 0.67 25.47 0.95Q25.59 1.23 25.59 1.55L25.59 1.55Q25.59 1.86 25.47 2.14Q25.35 2.43 25.14 2.64Q24.93 2.86 24.64 2.98Q24.36 3.11 24.04 3.11L24.04 3.11Q23.71 3.11 23.43 2.98Q23.14 2.86 22.93 2.65Q22.72 2.44 22.61 2.16Q22.49 1.88 22.49 1.55ZM29.33 1.91L27.89 1.91L27.89 1.43L30.34 1.17L31.99 0.74L32.20 1.08L32.20 17.11L33.41 17.23L33.41 17.71L28.13 17.71L28.13 17.23L29.33 17.11L29.33 1.91ZM35.05 11.89L35.05 11.89Q35.05 10.13 35.74 8.68Q36.42 7.24 37.66 6.42Q38.89 5.59 40.45 5.59L40.45 5.59Q41.74 5.59 42.78 6.12Q43.82 6.66 44.44 7.55Q45.07 8.44 45.40 9.53Q45.74 10.63 45.74 11.82L45.74 11.82Q45.74 13.55 45.08 14.96Q44.43 16.38 43.20 17.22Q41.98 18.06 40.43 18.06L40.43 18.06Q39.06 18.06 38.01 17.57Q36.96 17.09 36.32 16.22Q35.68 15.36 35.37 14.27Q35.05 13.18 35.05 11.89ZM38.05 11.75L38.05 11.75Q38.05 13.05 38.18 14.08Q38.31 15.11 38.58 15.90Q38.85 16.69 39.30 17.11Q39.76 17.53 40.38 17.53L40.38 17.53Q42.74 17.53 42.74 11.89L42.74 11.89Q42.74 10.48 42.63 9.46Q42.52 8.44 42.25 7.66Q41.99 6.88 41.52 6.50Q41.05 6.12 40.38 6.12L40.38 6.12Q39.76 6.12 39.30 6.54Q38.85 6.96 38.58 7.73Q38.31 8.51 38.18 9.50Q38.05 10.50 38.05 11.75ZM48.77 6.88L47.33 6.88L47.33 6.40L49.78 6.14L51.43 5.71L51.60 6.05L51.60 8.06L51.64 8.06Q51.88 7.59 52.22 7.15Q52.56 6.70 52.96 6.36Q53.37 6.01 53.82 5.80Q54.28 5.59 54.75 5.59L54.75 5.59Q55.66 5.59 56.16 6.08Q56.66 6.56 56.66 7.37L56.66 7.37Q56.66 7.71 56.55 8.00Q56.45 8.29 56.26 8.50Q56.06 8.71 55.79 8.83Q55.51 8.95 55.18 8.95L55.18 8.95Q54.83 8.95 54.55 8.84Q54.27 8.72 54.08 8.52Q53.88 8.32 53.78 8.06Q53.67 7.79 53.67 7.49L53.67 7.49Q53.67 6.87 53.93 6.57L53.93 6.57L53.93 6.50Q53.51 6.60 53.10 6.95Q52.70 7.30 52.37 7.90Q52.04 8.51 51.84 9.36Q51.64 10.21 51.64 11.27L51.64 11.27L51.64 17.11L52.85 17.23L52.85 17.71L47.57 17.71L47.57 17.23L48.77 17.11L48.77 6.88ZM64.37 6.88L62.93 6.88L62.93 6.40L65.38 6.14L67.03 5.71L67.20 6.05L67.20 7.63L67.24 7.63Q68.64 5.59 70.61 5.59L70.61 5.59Q71.02 5.59 71.40 5.68Q71.79 5.77 72.22 5.98Q72.64 6.20 73.00 6.66Q73.35 7.13 73.55 7.78L73.55 7.78L73.57 7.78Q75.14 5.59 77.23 5.59L77.23 5.59Q77.64 5.59 78.02 5.67Q78.41 5.74 78.86 6Q79.31 6.26 79.64 6.67Q79.97 7.08 80.19 7.82Q80.41 8.57 80.41 9.55L80.41 9.55L80.41 17.11L81.62 17.23L81.62 17.71L76.34 17.71L76.34 17.23L77.53 17.11L77.53 9.14Q77.53 8.45 77.41 7.95Q77.29 7.45 77.13 7.21Q76.97 6.96 76.73 6.83Q76.50 6.69 76.36 6.67Q76.22 6.64 76.04 6.64L76.04 6.64Q75.26 6.64 74.51 7.51Q73.77 8.38 73.77 9.89L73.77 9.89L73.77 17.11L74.98 17.23L74.98 17.71L69.69 17.71L69.69 17.23L70.89 17.11L70.89 9.14Q70.89 8.45 70.77 7.95Q70.65 7.45 70.49 7.21Q70.34 6.96 70.11 6.83Q69.88 6.69 69.74 6.67Q69.60 6.64 69.42 6.64L69.42 6.64Q68.67 6.64 67.96 7.65Q67.24 8.66 67.24 10.13L67.24 10.13L67.24 17.11L68.45 17.23L68.45 17.71L63.16 17.71L63.16 17.23L64.37 17.11L64.37 6.88ZM83.03 15.16L83.03 15.16Q83.03 14.59 83.21 14.06Q83.39 13.52 83.80 13.03Q84.21 12.54 84.81 12.18Q85.41 11.81 86.29 11.60Q87.18 11.38 88.25 11.38L88.25 11.38Q88.83 11.38 89.34 11.43L89.34 11.43L89.34 9.81Q89.34 9.04 89.31 8.55Q89.29 8.07 89.17 7.56Q89.05 7.05 88.83 6.78Q88.62 6.50 88.22 6.32Q87.83 6.14 87.27 6.14L87.27 6.14Q85.56 6.14 84.77 7.49L84.77 7.49L84.77 7.54Q84.97 7.50 85.14 7.50L85.14 7.50Q85.75 7.50 86.10 7.88Q86.45 8.25 86.45 8.95L86.45 8.95Q86.45 9.56 86.03 9.98Q85.61 10.39 84.97 10.39L84.97 10.39Q84.28 10.39 83.88 9.93Q83.48 9.46 83.48 8.82L83.48 8.82Q83.48 7.44 84.76 6.52Q86.03 5.59 87.68 5.59L87.68 5.59Q88.85 5.59 89.68 5.84Q90.50 6.08 91.00 6.49Q91.49 6.89 91.76 7.59Q92.04 8.29 92.13 9.01Q92.21 9.74 92.21 10.79L92.21 10.79L92.21 17.11L93.42 17.23L93.42 17.71L89.70 17.71L89.37 15.86L89.34 15.86Q88.77 16.97 87.96 17.51Q87.14 18.06 85.98 18.06L85.98 18.06Q84.55 18.06 83.79 17.20Q83.03 16.35 83.03 15.16ZM85.86 14.92L85.86 14.92Q85.86 15.86 86.21 16.44Q86.57 17.02 87.25 17.02L87.25 17.02Q88.04 17.02 88.69 16.02Q89.34 15.02 89.34 13.58L89.34 13.58L89.34 11.96Q88.88 11.91 88.58 11.91L88.58 11.91Q87.97 11.91 87.50 12.07Q87.02 12.23 86.74 12.52Q86.46 12.80 86.27 13.11Q86.09 13.42 86.00 13.79Q85.92 14.17 85.89 14.41Q85.86 14.66 85.86 14.92ZM94.92 12.12L94.92 12.12Q94.92 11.10 95.11 10.16Q95.30 9.22 95.71 8.38Q96.12 7.55 96.71 6.93Q97.31 6.32 98.19 5.95Q99.06 5.59 100.11 5.59L100.11 5.59Q100.56 5.59 101.16 5.74Q101.77 5.88 102.13 6.19L102.13 6.19L102.13 1.91L100.69 1.91L100.69 1.43L103.14 1.17L104.79 0.74L105.01 1.08L105.01 17.11L106.21 17.23L106.21 17.71L102.29 17.71L102.14 16.04L102.12 16.04Q101.44 17.20 100.70 17.63Q99.96 18.06 98.93 18.06L98.93 18.06Q98.66 18.06 98.36 18Q98.05 17.94 97.65 17.77Q97.25 17.60 96.88 17.34Q96.52 17.07 96.15 16.61Q95.79 16.14 95.52 15.54Q95.25 14.94 95.09 14.06Q94.92 13.17 94.92 12.12ZM97.92 12L97.92 12Q97.92 17.07 100.02 17.07L100.02 17.07Q100.85 17.07 101.49 16.08Q102.13 15.08 102.13 13.95L102.13 13.95L102.13 6.76Q101.46 6.26 100.64 6.26L100.64 6.26Q100.10 6.26 99.67 6.48Q99.25 6.70 98.96 7.04Q98.68 7.38 98.48 7.90Q98.29 8.43 98.18 8.91Q98.07 9.39 98.01 10.01Q97.95 10.63 97.93 11.05Q97.92 11.47 97.92 12ZM107.87 11.82L107.87 11.82Q107.87 10.91 108.05 10.04Q108.22 9.16 108.62 8.36Q109.02 7.55 109.59 6.94Q110.17 6.33 111.02 5.96Q111.87 5.59 112.90 5.59L112.90 5.59Q113.87 5.59 114.64 5.87Q115.42 6.14 115.93 6.63Q116.45 7.13 116.79 7.83Q117.13 8.54 117.28 9.37Q117.42 10.20 117.42 11.18L117.42 11.18L117.11 11.47L110.87 11.47L110.87 12.19Q110.87 17.30 113.78 17.30L113.78 17.30Q115.84 17.30 117.07 15.23L117.07 15.23L117.53 15.52Q116.02 18.06 113.23 18.06L113.23 18.06Q110.53 18.06 109.20 16.39Q107.87 14.73 107.87 11.82ZM110.87 10.95L110.87 10.95L114.66 10.79Q114.69 10.20 114.69 9.64L114.69 9.64Q114.69 7.95 114.29 7.03Q113.88 6.12 112.95 6.12L112.95 6.12Q112.38 6.12 111.98 6.49Q111.57 6.86 111.35 7.55Q111.13 8.24 111.02 9.05Q110.91 9.87 110.87 10.95ZM128.77 17.48L128.77 17.48Q130.10 17.48 130.74 16.99Q131.38 16.50 131.38 15.76L131.38 15.76Q131.38 15.38 131.26 15.08Q131.13 14.78 130.86 14.50Q130.58 14.23 130.13 13.94Q129.68 13.65 129.01 13.29L129.01 13.29Q128.43 12.95 127.77 12.58Q127.11 12.21 126.56 11.72Q126 11.24 125.63 10.59Q125.26 9.95 125.26 9.05L125.26 9.05Q125.26 8.25 125.57 7.61Q125.87 6.96 126.42 6.51Q126.96 6.06 127.72 5.81Q128.47 5.57 129.38 5.57L129.38 5.57Q130.05 5.57 130.74 5.74Q131.43 5.91 131.98 6.25Q132.53 6.59 132.87 7.09Q133.21 7.59 133.21 8.26L133.21 8.26Q133.21 8.52 133.12 8.77Q133.03 9.01 132.86 9.21Q132.68 9.41 132.43 9.53Q132.18 9.66 131.85 9.66L131.85 9.66Q131.17 9.66 130.83 9.28Q130.49 8.91 130.49 8.37L130.49 8.37Q130.49 8.03 130.58 7.79Q130.68 7.55 130.83 7.39Q130.99 7.23 131.20 7.15Q131.40 7.08 131.61 7.08L131.61 7.08L131.72 7.08L131.72 7.05Q131.60 6.87 131.38 6.70Q131.16 6.53 130.85 6.39Q130.55 6.26 130.17 6.18Q129.80 6.09 129.38 6.09L129.38 6.09Q128.75 6.09 128.32 6.26Q127.89 6.42 127.61 6.67Q127.34 6.93 127.21 7.23Q127.08 7.54 127.08 7.82L127.08 7.82Q127.08 8.16 127.18 8.40Q127.29 8.65 127.55 8.90Q127.82 9.15 128.28 9.45Q128.74 9.74 129.45 10.15L129.45 10.15Q130.13 10.50 130.88 10.90Q131.64 11.30 132.27 11.82Q132.90 12.34 133.32 13.01Q133.73 13.69 133.73 14.59L133.73 14.59Q133.73 15.35 133.45 15.98Q133.16 16.62 132.56 17.07Q131.95 17.53 131.02 17.78Q130.09 18.04 128.81 18.04L128.81 18.04Q128.20 18.04 127.51 17.88Q126.82 17.73 126.23 17.40Q125.65 17.06 125.26 16.53Q124.88 16.00 124.88 15.22L124.88 15.22Q124.88 14.89 124.98 14.59Q125.09 14.29 125.28 14.04Q125.47 13.80 125.75 13.66Q126.04 13.52 126.40 13.52L126.40 13.52Q126.71 13.52 126.96 13.63Q127.21 13.75 127.38 13.93Q127.55 14.11 127.64 14.36Q127.73 14.60 127.75 14.88L127.75 14.88Q127.75 15.21 127.63 15.46Q127.51 15.71 127.32 15.88Q127.14 16.04 126.90 16.13Q126.66 16.22 126.42 16.22L126.42 16.22Q126.38 16.22 126.32 16.22Q126.27 16.22 126.22 16.21L126.22 16.21L126.22 16.23Q126.33 16.46 126.54 16.69Q126.75 16.91 127.07 17.09Q127.39 17.26 127.82 17.37Q128.25 17.48 128.77 17.48ZM136.65 6.88L135.21 6.88L135.21 6.40L137.66 6.14L139.31 5.71L139.52 6.05L139.52 17.11L140.73 17.23L140.73 17.71L135.45 17.71L135.45 17.23L136.65 17.11L136.65 6.88ZM136.49 1.55L136.49 1.55Q136.49 1.22 136.61 0.94Q136.73 0.66 136.95 0.45Q137.16 0.23 137.44 0.12Q137.72 0 138.04 0L138.04 0Q138.35 0 138.63 0.12Q138.91 0.25 139.13 0.46Q139.35 0.67 139.47 0.95Q139.59 1.23 139.59 1.55L139.59 1.55Q139.59 1.86 139.47 2.14Q139.35 2.43 139.14 2.64Q138.93 2.86 138.64 2.98Q138.36 3.11 138.04 3.11L138.04 3.11Q137.71 3.11 137.43 2.98Q137.14 2.86 136.93 2.65Q136.72 2.44 136.61 2.16Q136.49 1.88 136.49 1.55ZM143.46 6.55L141.47 6.45L141.47 5.94L143.46 5.94L143.46 3.35L144.47 3.25L146.12 2.81L146.34 3.15L146.34 5.94L148.91 5.94L148.91 6.45L146.34 6.55L146.34 14.80Q146.34 15.52 146.51 15.99Q146.68 16.46 146.96 16.64Q147.23 16.82 147.40 16.86Q147.57 16.91 147.76 16.91L147.76 16.91Q148.13 16.91 148.46 16.75Q148.79 16.59 149.07 16.29Q149.34 15.98 149.52 15.73Q149.70 15.48 149.92 15.12L149.92 15.12L150.42 15.42Q149.80 16.45 149.34 16.92L149.34 16.92Q148.23 18.06 146.78 18.06L146.78 18.06Q146.23 18.06 145.80 17.98Q145.37 17.91 144.91 17.66Q144.46 17.41 144.15 17.00Q143.85 16.58 143.65 15.85Q143.46 15.12 143.46 14.13L143.46 14.13L143.46 6.55ZM151.18 11.82L151.18 11.82Q151.18 10.91 151.36 10.04Q151.54 9.16 151.93 8.36Q152.33 7.55 152.91 6.94Q153.48 6.33 154.33 5.96Q155.18 5.59 156.21 5.59L156.21 5.59Q157.18 5.59 157.96 5.87Q158.73 6.14 159.25 6.63Q159.76 7.13 160.10 7.83Q160.44 8.54 160.59 9.37Q160.73 10.20 160.73 11.18L160.73 11.18L160.42 11.47L154.18 11.47L154.18 12.19Q154.18 17.30 157.09 17.30L157.09 17.30Q159.15 17.30 160.38 15.23L160.38 15.23L160.84 15.52Q159.33 18.06 156.54 18.06L156.54 18.06Q153.84 18.06 152.51 16.39Q151.18 14.73 151.18 11.82ZM154.18 10.95L154.18 10.95L157.97 10.79Q158.00 10.20 158.00 9.64L158.00 9.64Q158.00 7.95 157.60 7.03Q157.20 6.12 156.26 6.12L156.26 6.12Q155.70 6.12 155.29 6.49Q154.89 6.86 154.66 7.55Q154.44 8.24 154.33 9.05Q154.22 9.87 154.18 10.95ZM166.65 17.48L166.65 17.48Q167.99 17.48 168.63 16.99Q169.27 16.50 169.27 15.76L169.27 15.76Q169.27 15.38 169.14 15.08Q169.02 14.78 168.74 14.50Q168.47 14.23 168.02 13.94Q167.57 13.65 166.90 13.29L166.90 13.29Q166.31 12.95 165.66 12.58Q165 12.21 164.44 11.72Q163.89 11.24 163.52 10.59Q163.15 9.95 163.15 9.05L163.15 9.05Q163.15 8.25 163.45 7.61Q163.76 6.96 164.30 6.51Q164.85 6.06 165.60 5.81Q166.36 5.57 167.26 5.57L167.26 5.57Q167.94 5.57 168.63 5.74Q169.31 5.91 169.86 6.25Q170.41 6.59 170.75 7.09Q171.09 7.59 171.09 8.26L171.09 8.26Q171.09 8.52 171.01 8.77Q170.92 9.01 170.74 9.21Q170.57 9.41 170.31 9.53Q170.06 9.66 169.73 9.66L169.73 9.66Q169.05 9.66 168.71 9.28Q168.38 8.91 168.38 8.37L168.38 8.37Q168.38 8.03 168.47 7.79Q168.56 7.55 168.72 7.39Q168.88 7.23 169.08 7.15Q169.29 7.08 169.50 7.08L169.50 7.08L169.61 7.08L169.61 7.05Q169.49 6.87 169.27 6.70Q169.04 6.53 168.74 6.39Q168.43 6.26 168.06 6.18Q167.68 6.09 167.26 6.09L167.26 6.09Q166.64 6.09 166.21 6.26Q165.77 6.42 165.50 6.67Q165.22 6.93 165.09 7.23Q164.96 7.54 164.96 7.82L164.96 7.82Q164.96 8.16 165.07 8.40Q165.18 8.65 165.44 8.90Q165.70 9.15 166.17 9.45Q166.63 9.74 167.33 10.15L167.33 10.15Q168.01 10.50 168.77 10.90Q169.52 11.30 170.16 11.82Q170.79 12.34 171.21 13.01Q171.62 13.69 171.62 14.59L171.62 14.59Q171.62 15.35 171.33 15.98Q171.05 16.62 170.44 17.07Q169.84 17.53 168.91 17.78Q167.98 18.04 166.70 18.04L166.70 18.04Q166.09 18.04 165.40 17.88Q164.71 17.73 164.12 17.40Q163.54 17.06 163.15 16.53Q162.76 16.00 162.76 15.22L162.76 15.22Q162.76 14.89 162.87 14.59Q162.97 14.29 163.17 14.04Q163.36 13.80 163.64 13.66Q163.92 13.52 164.29 13.52L164.29 13.52Q164.60 13.52 164.85 13.63Q165.09 13.75 165.26 13.93Q165.43 14.11 165.53 14.36Q165.62 14.60 165.63 14.88L165.63 14.88Q165.63 15.21 165.52 15.46Q165.40 15.71 165.21 15.88Q165.02 16.04 164.78 16.13Q164.54 16.22 164.31 16.22L164.31 16.22Q164.26 16.22 164.21 16.22Q164.16 16.22 164.11 16.21L164.11 16.21L164.11 16.23Q164.21 16.46 164.43 16.69Q164.64 16.91 164.96 17.09Q165.28 17.26 165.71 17.37Q166.14 17.48 166.65 17.48Z" transform="translate(0, 8.971)"></path></svg>